<svg width="100" height="117" viewBox="0 0 100 117" fill="none" xmlns="http://www.w3.org/2000/svg">
<path d="M39.1961 0C51.3651 5.83392 62.3043 14.3275 71.4413 24.9025C80.5761 35.475 87.7531 47.9455 92.6284 61.5678C97.5037 75.1906 100 89.7501 100 104.426V117L44.2325 96.6864L6.2141 117L0 101.837L44.2325 77.9024L80.9283 91.5962C79.9682 83.2618 78.077 75.102 75.2958 67.3307C71.0991 55.6043 64.9795 45.0397 57.3515 36.2112C54.1806 32.5412 50.7776 29.206 47.1852 26.225L39.7059 40.9514H17.6571L33.127 11.7386L33.1356 11.7428L39.1961 0Z" fill="#111111"/>
</svg>
